HIERARCHY
ROOT Bip01
{
  OFFSET 15.7446 31.5610 57.6474
  CHANNELS 6 Xposition Yposition Zposition Zrotation Xrotation Yrotation
  JOINT Bip01_Footsteps
  {
    OFFSET 53.2821 -0.0001 8.1953
    CHANNELS 6 Xposition Yposition Zposition Zrotation Xrotation Yrotation
    End Site
    {
      OFFSET 0 0 0
    }
  }
  JOINT b_Hips
  {
    OFFSET 0.0000 0.0000 0.0000
    CHANNELS 6 Xposition Yposition Zposition Zrotation Xrotation Yrotation
    JOINT b_Spine
    {
      OFFSET 10.4409 -1.6220 0.0000
      CHANNELS 6 Xposition Yposition Zposition Zrotation Xrotation Yrotation
      JOINT b_Spine1
      {
        OFFSET 8.8514 -0.0090 0.0000
        CHANNELS 6 Xposition Yposition Zposition Zrotation Xrotation Yrotation
        JOINT b_Spine2
        {
          OFFSET 11.3035 -0.0088 -0.0000
          CHANNELS 6 Xposition Yposition Zposition Zrotation Xrotation Yrotation
          JOINT b_Spine3
          {
            OFFSET 11.0297 -0.0113 0.0000
            CHANNELS 6 Xposition Yposition Zposition Zrotation Xrotation Yrotation
            JOINT b__Neck
            {
              OFFSET 14.9480 -3.1935 0.0000
              CHANNELS 6 Xposition Yposition Zposition Zrotation Xrotation Yrotation
              JOINT b__Neck1
              {
                OFFSET 5.4958 -0.0043 -0.0000
                CHANNELS 6 Xposition Yposition Zposition Zrotation Xrotation Yrotation
                JOINT b__Neck2
                {
                  OFFSET 5.5266 -0.0049 0.0000
                  CHANNELS 6 Xposition Yposition Zposition Zrotation Xrotation Yrotation
                  JOINT b_Head
                  {
                    OFFSET 6.1093 -0.0000 -0.0000
                    CHANNELS 6 Xposition Yposition Zposition Zrotation Xrotation Yrotation
                    JOINT Bip01_HeadNub
                    {
                      OFFSET 28.6688 -0.0000 -0.0000
                      CHANNELS 6 Xposition Yposition Zposition Zrotation Xrotation Yrotation
                      End Site
                      {
                        OFFSET 0 0 0
                      }
                    }
                    JOINT Dog_Jaw
                    {
                      OFFSET 0.6075 2.3575 -0.0000
                      CHANNELS 6 Xposition Yposition Zposition Zrotation Xrotation Yrotation
                      End Site
                      {
                        OFFSET 0 0 0
                      }
                    }
                  }
                }
              }
            }
            JOINT b_LeftClav
            {
              OFFSET 10.4683 2.1257 3.5190
              CHANNELS 6 Xposition Yposition Zposition Zrotation Xrotation Yrotation
              JOINT b_LeftArm
              {
                OFFSET 7.3453 0.0000 0.0000
                CHANNELS 6 Xposition Yposition Zposition Zrotation Xrotation Yrotation
                JOINT b_LeftForeArm
                {
                  OFFSET 23.3863 -0.0000 0.0000
                  CHANNELS 6 Xposition Yposition Zposition Zrotation Xrotation Yrotation
                  JOINT b_LeftHand
                  {
                    OFFSET 21.5040 -0.0000 0.0000
                    CHANNELS 6 Xposition Yposition Zposition Zrotation Xrotation Yrotation
                    JOINT b__LeftFinger
                    {
                      OFFSET 1.5926 6.2126 -0.0138
                      CHANNELS 6 Xposition Yposition Zposition Zrotation Xrotation Yrotation
                      JOINT Bip01_L_Finger0Nub
                      {
                        OFFSET 23.3657 0.0000 0.0000
                        CHANNELS 6 Xposition Yposition Zposition Zrotation Xrotation Yrotation
                        End Site
                        {
                          OFFSET 0 0 0
                        }
                      }
                    }
                  }
                }
                JOINT Dog_LeftArmor002
                {
                  OFFSET 4.2035 4.4457 12.7354
                  CHANNELS 6 Xposition Yposition Zposition Zrotation Xrotation Yrotation
                  End Site
                  {
                    OFFSET 0 0 0
                  }
                }
              }
            }
            JOINT b_RightClav
            {
              OFFSET 10.4683 2.1257 -3.5189
              CHANNELS 6 Xposition Yposition Zposition Zrotation Xrotation Yrotation
              JOINT b_RightArm
              {
                OFFSET 7.3453 0.0000 -0.0000
                CHANNELS 6 Xposition Yposition Zposition Zrotation Xrotation Yrotation
                JOINT b_RightForeArm
                {
                  OFFSET 23.3863 0.0000 -0.0000
                  CHANNELS 6 Xposition Yposition Zposition Zrotation Xrotation Yrotation
                  JOINT b_RightHand
                  {
                    OFFSET 21.5040 0.0000 0.0000
                    CHANNELS 6 Xposition Yposition Zposition Zrotation Xrotation Yrotation
                    JOINT b_RightFinger
                    {
                      OFFSET 1.5926 6.2126 0.0138
                      CHANNELS 6 Xposition Yposition Zposition Zrotation Xrotation Yrotation
                      JOINT Bip01_R_Finger0Nub
                      {
                        OFFSET 23.3657 -0.0000 0.0000
                        CHANNELS 6 Xposition Yposition Zposition Zrotation Xrotation Yrotation
                        End Site
                        {
                          OFFSET 0 0 0
                        }
                      }
                    }
                  }
                }
                JOINT Dog_RightArmor002
                {
                  OFFSET 4.2034 4.4457 -12.7351
                  CHANNELS 6 Xposition Yposition Zposition Zrotation Xrotation Yrotation
                  End Site
                  {
                    OFFSET 0 0 0
                  }
                }
              }
            }
          }
        }
      }
    }
    JOINT b_Tail001
    {
      OFFSET -2.9242 2.0655 -1.4674
      CHANNELS 6 Xposition Yposition Zposition Zrotation Xrotation Yrotation
      JOINT b_Tail002
      {
        OFFSET 4.2212 0.0000 -0.0000
        CHANNELS 6 Xposition Yposition Zposition Zrotation Xrotation Yrotation
        JOINT b_Tail003
        {
          OFFSET 4.9750 0.0000 -0.0000
          CHANNELS 6 Xposition Yposition Zposition Zrotation Xrotation Yrotation
          JOINT b_Tail004
          {
            OFFSET 4.7171 -0.0000 0.0000
            CHANNELS 6 Xposition Yposition Zposition Zrotation Xrotation Yrotation
            JOINT b_Tail005
            {
              OFFSET 9.7173 -0.0000 -0.0001
              CHANNELS 6 Xposition Yposition Zposition Zrotation Xrotation Yrotation
              JOINT b_Tail006
              {
                OFFSET 8.2617 0.0001 0.0000
                CHANNELS 6 Xposition Yposition Zposition Zrotation Xrotation Yrotation
                JOINT b_Tail007
                {
                  OFFSET 9.7599 -0.0001 0.0000
                  CHANNELS 6 Xposition Yposition Zposition Zrotation Xrotation Yrotation
                  JOINT b_Tail008
                  {
                    OFFSET 11.1530 0.0000 -0.0000
                    CHANNELS 6 Xposition Yposition Zposition Zrotation Xrotation Yrotation
                    JOINT b_Tail009
                    {
                      OFFSET 10.3039 0.0000 0.0000
                      CHANNELS 6 Xposition Yposition Zposition Zrotation Xrotation Yrotation
                      End Site
                      {
                        OFFSET 0 0 0
                      }
                    }
                  }
                }
              }
            }
          }
        }
      }
    }
    JOINT Dog_LeftTail001
    {
      OFFSET -11.9878 -1.7857 10.1900
      CHANNELS 6 Xposition Yposition Zposition Zrotation Xrotation Yrotation
      JOINT Dog_LeftTail002
      {
        OFFSET 8.4424 0.0000 0.0000
        CHANNELS 6 Xposition Yposition Zposition Zrotation Xrotation Yrotation
        JOINT Dog_LeftTail003
        {
          OFFSET 9.9501 0.0000 -0.0000
          CHANNELS 6 Xposition Yposition Zposition Zrotation Xrotation Yrotation
          JOINT Dog_LeftTail004
          {
            OFFSET 9.4342 0.0000 -0.0000
            CHANNELS 6 Xposition Yposition Zposition Zrotation Xrotation Yrotation
            JOINT Dog_LeftTail005
            {
              OFFSET 9.7173 0.0001 0.0001
              CHANNELS 6 Xposition Yposition Zposition Zrotation Xrotation Yrotation
              JOINT Dog_LeftTail006
              {
                OFFSET 8.2618 -0.0000 -0.0000
                CHANNELS 6 Xposition Yposition Zposition Zrotation Xrotation Yrotation
                JOINT Dog_LeftTail007
                {
                  OFFSET 9.7599 0.0000 0.0000
                  CHANNELS 6 Xposition Yposition Zposition Zrotation Xrotation Yrotation
                  JOINT Dog_LeftTail008
                  {
                    OFFSET 11.1529 -0.0001 -0.0001
                    CHANNELS 6 Xposition Yposition Zposition Zrotation Xrotation Yrotation
                    JOINT Dog_LeftTail009
                    {
                      OFFSET 10.3039 -0.0000 0.0000
                      CHANNELS 6 Xposition Yposition Zposition Zrotation Xrotation Yrotation
                      End Site
                      {
                        OFFSET 0 0 0
                      }
                    }
                  }
                }
              }
            }
          }
        }
      }
    }
    JOINT b_LeftLegUpper
    {
      OFFSET -0.0000 0.0000 9.9422
      CHANNELS 6 Xposition Yposition Zposition Zrotation Xrotation Yrotation
      JOINT b_LeftLeg
      {
        OFFSET 25.9795 0.0000 0.0000
        CHANNELS 6 Xposition Yposition Zposition Zrotation Xrotation Yrotation
        JOINT b_LeftLeg1
        {
          OFFSET 21.2087 0.0000 -0.0000
          CHANNELS 6 Xposition Yposition Zposition Zrotation Xrotation Yrotation
          JOINT b_LeftAnkle
          {
            OFFSET 10.4341 -0.0000 0.0000
            CHANNELS 6 Xposition Yposition Zposition Zrotation Xrotation Yrotation
            JOINT b_LeftToe
            {
              OFFSET 5.6676 6.5983 0.0000
              CHANNELS 6 Xposition Yposition Zposition Zrotation Xrotation Yrotation
              JOINT Bip01_L_Toe0Nub
              {
                OFFSET 8.6279 0.0000 -0.0000
                CHANNELS 6 Xposition Yposition Zposition Zrotation Xrotation Yrotation
                End Site
                {
                  OFFSET 0 0 0
                }
              }
            }
            JOINT b_LeftToe002
            {
              OFFSET 5.6741 -2.3619 -0.5306
              CHANNELS 6 Xposition Yposition Zposition Zrotation Xrotation Yrotation
              End Site
              {
                OFFSET 0 0 0
              }
            }
          }
        }
      }
      JOINT Dog_LeftArmor001
      {
        OFFSET -2.6287 -3.4254 -3.1462
        CHANNELS 6 Xposition Yposition Zposition Zrotation Xrotation Yrotation
        End Site
        {
          OFFSET 0 0 0
        }
      }
    }
    JOINT b_RightLegUpper
    {
      OFFSET 0.0000 -0.0000 -9.9422
      CHANNELS 6 Xposition Yposition Zposition Zrotation Xrotation Yrotation
      JOINT b_RightLeg
      {
        OFFSET 25.9795 0.0000 0.0000
        CHANNELS 6 Xposition Yposition Zposition Zrotation Xrotation Yrotation
        JOINT b_RightLeg1
        {
          OFFSET 21.2087 0.0000 0.0000
          CHANNELS 6 Xposition Yposition Zposition Zrotation Xrotation Yrotation
          JOINT b_RightAnkle
          {
            OFFSET 10.4341 -0.0000 -0.0000
            CHANNELS 6 Xposition Yposition Zposition Zrotation Xrotation Yrotation
            JOINT b_RightToe
            {
              OFFSET 5.6676 6.5983 -0.0000
              CHANNELS 6 Xposition Yposition Zposition Zrotation Xrotation Yrotation
              JOINT Bip01_R_Toe0Nub
              {
                OFFSET 8.6279 -0.0000 0.0000
                CHANNELS 6 Xposition Yposition Zposition Zrotation Xrotation Yrotation
                End Site
                {
                  OFFSET 0 0 0
                }
              }
            }
            JOINT b_RightToe002
            {
              OFFSET 5.6741 -2.3620 0.5304
              CHANNELS 6 Xposition Yposition Zposition Zrotation Xrotation Yrotation
              End Site
              {
                OFFSET 0 0 0
              }
            }
          }
        }
      }
      JOINT Dog_RightArmor001
      {
        OFFSET -2.6288 -3.4254 3.1460
        CHANNELS 6 Xposition Yposition Zposition Zrotation Xrotation Yrotation
        End Site
        {
          OFFSET 0 0 0
        }
      }
    }
  }
}
MOTION
Frames: 4
Frame Time: 0.00833333
23.0089 56.3353 -150.614 86.3127 9.2538 -175.726 53.2821 -6.35e-05 8.19533 -90 -81.2558 -180 0 0 0 -89.9999 -5.43972e-14 -90 10.4409 -1.622 1.78e-05 -4.66706 -2.27589 -5.16972 8.8514 -0.0089989 0 -7.06415 2.01667 2.27467 11.3035 -0.0087814 0 -8.87009 6.44647 0.650378 11.0297 -0.0113029 -1.42109e-14 -5.95567 4.71134 -3.79702 14.948 -3.19349 8.6e-06 -48.8154 -3.82835 -13.1349 5.49578 -0.0042877 0 7.4135 -6.1371 1.00577 5.52657 -0.0048637 0 6.56851 7.7458 2.80534 6.10934 -2.84217e-14 1.42109e-14 49.1284 -0.766896 4.58069 28.6688 0 0 -1.59028e-15 -1.59028e-15 -0 0.607494 2.35752 -7.6e-06 -156.427 -0.000147608 180 10.4683 2.1257 3.51896 -178.235 15.1517 -82.5289 7.34534 0 1.9e-06 -89.621 -86.8214 -3.86695 23.3863 -1.9e-06 1e-06 -4.96339 -0.50446 -1.2902 21.504 2.84217e-14 0 -72.6392 -5.45319 2.28304 1.59262 6.21256 -0.0138378 11.6392 -11.4646 -3.07393 23.3657 0 1e-06 -3.97569e-16 9.93923e-17 -3.18055e-15 4.20345 4.44573 12.7354 172.377 0.21838 -87.1877 10.4683 2.12572 -3.51895 175.549 4.36193 86.7999 7.34534 -7.10543e-15 -1.9e-06 -35.024 62.7495 -51.7222 23.3863 1.9e-06 0 -12.4815 9.54166e-15 -0 21.504 3.8e-06 1e-06 -95.1512 -12.3646 -2.94467 1.59262 6.21257 0.0138388 -10.5651 -9.45326 1.93413 23.3657 0 1e-06 180 4.77083e-15 7.95139e-15 4.20337 4.4457 -12.7351 172.377 -0.218352 87.1876 -2.9242 2.06553 -1.46745 167.939 -4.54556 -38.3278 4.22117 3.815e-05 -5.7e-06 -7.6463 -4.96825 4.11625 4.97505 3.8e-06 -6.7e-06 -83.2881 -82.3931 -80.8448 4.7171 -1.145e-05 2.86e-05 -1.27222e-14 3.18055e-15 -1.59028e-15 9.71734 -4.2e-05 -5.72e-05 -6.36111e-15 1.59028e-15 1.59028e-15 8.26175 8.01e-05 5.7e-06 -9.54166e-15 3.18055e-15 -0 9.75986 -6.48e-05 2.86e-05 -6.36111e-15 4.77083e-15 -3.18055e-15 11.153 2.67e-05 -2.1e-05 3.18055e-15 3.18055e-15 -0 10.3039 1.14e-05 4.2e-05 6.36111e-15 -1.59028e-15 1.59028e-15 -11.9878 -1.78568 10.19 170.606 3.62573 1.11034 8.44238 1.53e-05 4.2e-05 -7.95139e-16 0 1.59028e-15 9.95005 7.6e-06 -2.86e-05 7.95139e-16 3.97569e-16 -1.59028e-15 9.43418 0 -4.58e-05 -1.59028e-15 1.98785e-16 -1.59028e-15 9.71733 6.87e-05 0.0001106 -7.95139e-16 3.97569e-16 1.59028e-15 8.26175 -2.29e-05 -4.77e-05 -1.59028e-15 1.98785e-16 1.59028e-15 9.75994 2.86e-05 3.05e-05 -5.51738e-33 -1.98785e-16 -1.59028e-15 11.1529 -7.25e-05 -5.91e-05 7.95139e-16 -1.98785e-16 -1.59028e-15 10.3039 -7.6e-06 0 -7.95139e-16 1.98785e-16 -0 -1.14e-05 1.53e-05 9.94222 -108.914 25.0721 -172.823 25.9795 1e-06 1.42109e-14 -41.4421 -0.218123 -1.19091 21.2087 1.9e-06 -1e-06 56.6282 5.77281 -7.82919 10.4341 -1.9e-06 1e-06 -12.6381 -2.66554 4.45147 5.66763 6.59832 1.42109e-14 88.2396 11.2731 -4.54106 8.62785 -1.77636e-15 0 -180 6.36111e-14 -1.27222e-14 5.67414 -2.36194 -0.530567 -75.8081 4.38708 5.33411 -2.62874 -3.42539 -3.14618 29.7499 1.82752 90.2264 1.53e-05 -1.53e-05 -9.94222 -121.962 -12.0088 167.59 25.9795 0 1e-06 -38.6935 -0.234465 2.58677 21.2087 2.84217e-14 1.9e-06 52.574 -12.3661 8.91271 10.4341 -1.9e-06 -1e-06 -18.2138 10.5224 -3.97962 5.66763 6.59831 7.10543e-15 84.5013 1.81783 -1.21496 8.62785 -7.10543e-15 -7.10543e-15 3.18055e-15 0 -7.95139e-16 5.67412 -2.36198 0.530356 -75.808 -4.38692 -5.33418 -2.62878 -3.42545 3.14601 29.7498 -1.82753 -90.2266
23.0089 56.3353 -150.614 86.3127 9.2538 -175.726 53.2821 -6.35e-05 8.19533 -90 -81.2558 -180 0 0 0 -89.9999 -5.43972e-14 -90 10.4409 -1.622 1.78e-05 -4.66706 -2.27589 -5.16972 8.8514 -0.0089989 0 -7.06415 2.01667 2.27467 11.3035 -0.0087814 0 -8.87009 6.44647 0.650378 11.0297 -0.0113029 -1.42109e-14 -5.95567 4.71134 -3.79702 14.948 -3.19349 8.6e-06 -48.8154 -3.82835 -13.1349 5.49578 -0.0042877 0 7.4135 -6.1371 1.00577 5.52657 -0.0048637 0 6.56851 7.7458 2.80534 6.10934 -2.84217e-14 1.42109e-14 49.1284 -0.766896 4.58069 28.6688 0 0 -1.59028e-15 -1.59028e-15 -0 0.607494 2.35752 -7.6e-06 -156.427 -0.000147608 180 10.4683 2.1257 3.51896 -178.235 15.1517 -82.5289 7.34534 0 1.9e-06 -89.621 -86.8214 -3.86695 23.3863 -1.9e-06 1e-06 -4.96339 -0.50446 -1.2902 21.504 2.84217e-14 0 -72.6392 -5.45319 2.28304 1.59262 6.21256 -0.0138378 11.6392 -11.4646 -3.07393 23.3657 0 1e-06 -3.97569e-16 9.93923e-17 -3.18055e-15 4.20345 4.44573 12.7354 172.377 0.21838 -87.1877 10.4683 2.12572 -3.51895 175.549 4.36193 86.7999 7.34534 -7.10543e-15 -1.9e-06 -35.024 62.7495 -51.7222 23.3863 1.9e-06 0 -12.4815 9.54166e-15 -0 21.504 3.8e-06 1e-06 -95.1512 -12.3646 -2.94467 1.59262 6.21257 0.0138388 -10.5651 -9.45326 1.93413 23.3657 0 1e-06 180 4.77083e-15 7.95139e-15 4.20337 4.4457 -12.7351 172.377 -0.218352 87.1876 -2.9242 2.06553 -1.46745 167.939 -4.54556 -38.3278 4.22117 3.815e-05 -5.7e-06 -7.6463 -4.96825 4.11625 4.97505 3.8e-06 -6.7e-06 -83.2881 -82.3931 -80.8448 4.7171 -1.145e-05 2.86e-05 -1.27222e-14 3.18055e-15 -1.59028e-15 9.71734 -4.2e-05 -5.72e-05 -6.36111e-15 1.59028e-15 1.59028e-15 8.26175 8.01e-05 5.7e-06 -9.54166e-15 3.18055e-15 -0 9.75986 -6.48e-05 2.86e-05 -6.36111e-15 4.77083e-15 -3.18055e-15 11.153 2.67e-05 -2.1e-05 3.18055e-15 3.18055e-15 -0 10.3039 1.14e-05 4.2e-05 6.36111e-15 -1.59028e-15 1.59028e-15 -11.9878 -1.78568 10.19 170.606 3.62573 1.11034 8.44238 1.53e-05 4.2e-05 -7.95139e-16 0 1.59028e-15 9.95005 7.6e-06 -2.86e-05 7.95139e-16 3.97569e-16 -1.59028e-15 9.43418 0 -4.58e-05 -1.59028e-15 1.98785e-16 -1.59028e-15 9.71733 6.87e-05 0.0001106 -7.95139e-16 3.97569e-16 1.59028e-15 8.26175 -2.29e-05 -4.77e-05 -1.59028e-15 1.98785e-16 1.59028e-15 9.75994 2.86e-05 3.05e-05 -5.51738e-33 -1.98785e-16 -1.59028e-15 11.1529 -7.25e-05 -5.91e-05 7.95139e-16 -1.98785e-16 -1.59028e-15 10.3039 -7.6e-06 0 -7.95139e-16 1.98785e-16 -0 -1.14e-05 1.53e-05 9.94222 -108.914 25.0721 -172.823 25.9795 1e-06 1.42109e-14 -41.4421 -0.218123 -1.19091 21.2087 1.9e-06 -1e-06 56.6282 5.77281 -7.82919 10.4341 -1.9e-06 1e-06 -12.6381 -2.66554 4.45147 5.66763 6.59832 1.42109e-14 88.2396 11.2731 -4.54106 8.62785 -1.77636e-15 0 -180 6.36111e-14 -1.27222e-14 5.67414 -2.36194 -0.530567 -75.8081 4.38708 5.33411 -2.62874 -3.42539 -3.14618 29.7499 1.82752 90.2264 1.53e-05 -1.53e-05 -9.94222 -121.962 -12.0088 167.59 25.9795 0 1e-06 -38.6935 -0.234465 2.58677 21.2087 2.84217e-14 1.9e-06 52.574 -12.3661 8.91271 10.4341 -1.9e-06 -1e-06 -18.2138 10.5224 -3.97962 5.66763 6.59831 7.10543e-15 84.5013 1.81783 -1.21496 8.62785 -7.10543e-15 -7.10543e-15 3.18055e-15 0 -7.95139e-16 5.67412 -2.36198 0.530356 -75.808 -4.38692 -5.33418 -2.62878 -3.42545 3.14601 29.7498 -1.82753 -90.2266
20.1283 57.5311 -149.892 92.0314 10.2174 -164.79 53.2821 -6.35e-05 8.19533 -90 -81.2558 -180 0 0 0 -89.9999 -7.98417e-14 -90 10.4409 -1.622 1.78e-05 -4.60616 -2.06422 -4.84687 8.8514 -0.0089989 -1.42109e-14 -7.05369 1.9871 2.47595 11.3035 -0.0087814 0 -8.92722 6.41728 0.72035 11.0297 -0.0113029 7.10543e-15 -6.01324 4.74016 -3.8014 14.948 -3.19349 8.6e-06 -49.6566 -5.50908 -13.948 5.49578 -0.0042877 -1.42109e-14 7.68635 -3.83274 1.574 5.52657 -0.0048637 0 6.40113 7.23896 2.89471 6.10934 -4.26326e-14 0 48.9328 -0.63287 4.60467 28.6688 1.42109e-14 0 -0 1.98785e-16 -0 0.607494 2.35752 -7.6e-06 -156.427 -0.000147608 180 10.4683 2.1257 3.51896 -178.052 14.6246 -82.8935 7.34534 0 1.9e-06 -90.1028 -87.4372 -3.71868 23.3863 -1.9e-06 1e-06 -6.05344 -0.479821 -1.29957 21.504 0 0 -72.4242 -5.44462 2.30346 1.59262 6.21256 -0.0138378 10.9696 -12.3174 -3.36358 23.3657 0 1e-06 2.38542e-15 -1.59028e-15 3.18055e-15 4.20345 4.44573 12.7354 172.377 0.21838 -87.1877 10.4683 2.12572 -3.51895 175.528 4.31935 86.8925 7.34534 7.10543e-15 -1.9e-06 -35.2886 62.6072 -51.2701 23.3863 1.9e-06 0 -12.8204 0 3.97569e-16 21.504 3.8e-06 1e-06 -95.5615 -12.5287 -2.49352 1.59262 6.21257 0.0138388 -13.1158 -10.7153 2.29871 23.3657 -1.42109e-14 1e-06 180 1.59028e-14 -0 4.20337 4.4457 -12.7351 172.377 -0.218352 87.1876 -2.9242 2.06553 -1.46745 167.83 -4.94246 -36.7194 4.22117 3.815e-05 -5.7e-06 -7.67981 -4.62114 4.40172 4.97505 3.8e-06 -6.7e-06 -96.6294 -83.482 -94.4463 4.7171 -1.145e-05 2.86e-05 6.36111e-15 7.95139e-16 -0 9.71734 -4.2e-05 -5.72e-05 6.36111e-15 1.59028e-15 -7.95139e-16 8.26175 8.01e-05 5.7e-06 -0 0 -7.95139e-16 9.75986 -6.48e-05 2.86e-05 6.36111e-15 3.97569e-16 -0 11.153 2.67e-05 -2.1e-05 6.36111e-15 -7.95139e-16 1.59028e-15 10.3039 1.14e-05 4.2e-05 6.36111e-15 -3.97569e-16 7.95139e-16 -11.9878 -1.78568 10.19 170.606 3.62573 1.11034 8.44238 1.53e-05 4.2e-05 7.95139e-16 -9.93923e-16 -1.59028e-15 9.95005 7.6e-06 -2.86e-05 7.95139e-16 -9.93923e-16 -1.59028e-15 9.43418 -1.42109e-14 -4.58e-05 -1.59028e-15 -5.96354e-16 -0 9.71733 6.87e-05 0.0001106 7.95139e-16 -1.59028e-15 -4.77083e-15 8.26175 -2.29e-05 -4.77e-05 -7.95139e-16 -5.96354e-16 -0 9.75994 2.86e-05 3.05e-05 7.95139e-16 -3.97569e-16 -3.18055e-15 11.1529 -7.25e-05 -5.91e-05 -7.95139e-16 -3.97569e-16 -0 10.3039 -7.6e-06 7.10543e-15 -3.86217e-32 -1.39149e-15 -1.59028e-15 -1.14e-05 1.53e-05 9.94222 -109.297 25.0344 -172.548 25.9795 1e-06 0 -41.9865 -0.206797 -1.19293 21.2087 1.9e-06 -1e-06 57.2372 6.32946 -8.26813 10.4341 -1.9e-06 1e-06 -12.7633 -2.67527 4.44564 5.66763 6.59832 0 88.1239 11.7198 -4.75564 8.62785 0 0 -180 -7.63333e-14 9.54166e-15 5.67414 -2.36194 -0.530567 -75.8081 4.38708 5.33411 -2.62874 -3.42539 -3.14618 29.7499 1.82752 90.2264 1.53e-05 -1.53e-05 -9.94222 -122.227 -11.8091 167.627 25.9795 2.84217e-14 1e-06 -40.297 -0.306809 2.5792 21.2087 2.84217e-14 1.9e-06 54.4382 -12.363 8.66196 10.4341 -1.9e-06 -1e-06 -18.9207 9.71575 -4.24598 5.66763 6.59831 0 84.0741 2.09241 -1.47357 8.62785 0 0 -1.59028e-15 -7.45443e-17 7.95139e-16 5.67412 -2.36198 0.530355 -75.808 -4.38692 -5.33418 -2.62878 -3.42545 3.14601 29.7498 -1.82753 -90.2266
20.2334 57.428 -149.748 91.9124 10.6846 -164.958 53.2821 -6.35e-05 8.19533 -90 -81.2558 -180 0 0 0 -89.9999 -5.43972e-14 -90 10.4409 -1.622 1.78e-05 -4.52314 -1.87739 -4.53222 8.8514 -0.0089989 -7.10543e-15 -6.96784 1.9465 2.66919 11.3035 -0.0087814 -7.10543e-15 -8.9236 6.36612 0.777001 11.0297 -0.0113029 7.10543e-15 -6.0022 4.73502 -3.81492 14.948 -3.19349 8.6e-06 -49.9793 -5.91522 -14.5676 5.49578 -0.0042877 0 7.82671 -3.48185 1.97228 5.52657 -0.0048637 0 6.42139 7.30219 2.90876 6.10934 -2.84217e-14 0 48.9055 -0.627362 4.54791 28.6688 0 0 3.97569e-16 5.96354e-16 4.77083e-15 0.607494 2.35752 -7.6e-06 -156.427 -0.000147608 180 10.4683 2.1257 3.51896 -177.821 14.0669 -83.2496 7.34534 7.10543e-15 1.9e-06 -90.774 -88.4033 -3.71989 23.3863 -1.9e-06 1e-06 -7.15998 -0.454631 -1.30859 21.504 0 0 -71.4627 -5.40536 2.39436 1.59262 6.21256 -0.0138378 10.7649 -12.386 -3.66659 23.3657 3.55271e-15 1e-06 -2.38542e-15 1.59028e-15 3.18055e-15 4.20345 4.44573 12.7354 172.377 0.21838 -87.1877 10.4683 2.12572 -3.51895 175.593 4.29473 86.9672 7.34534 0 -1.9e-06 -35.4604 62.5315 -50.9699 23.3863 1.9e-06 -1.42109e-14 -13.094 0 1.98785e-15 21.504 3.8e-06 1e-06 -95.6679 -12.6703 -2.2313 1.59262 6.21257 0.0138388 -13.4334 -10.8926 2.31384 23.3657 1.42109e-14 1e-06 180 0 -0 4.20337 4.4457 -12.7351 172.377 -0.218352 87.1876 -2.9242 2.06553 -1.46745 167.892 -5.09195 -35.0417 4.22117 3.815e-05 -5.7e-06 -7.6283 -4.84414 4.53136 4.97505 3.8e-06 -6.7e-06 -100.164 -84.7627 -98.1317 4.7171 -1.145e-05 2.86e-05 3.18055e-15 7.95139e-16 -0 9.71734 -4.2e-05 -5.72e-05 -0 0 7.95139e-16 8.26175 8.01e-05 5.7e-06 3.18055e-15 7.95139e-16 7.95139e-16 9.75986 -6.48e-05 2.86e-05 5.51738e-33 -3.97569e-16 7.95139e-16 11.153 2.67e-05 -2.1e-05 1.10348e-32 -3.97569e-16 1.59028e-15 10.3039 1.14e-05 4.2e-05 -1.10348e-32 7.95139e-16 7.95139e-16 -11.9878 -1.78568 10.19 170.606 3.62573 1.11034 8.44238 1.53e-05 4.2e-05 -7.95139e-16 -1.78906e-15 -0 9.95005 7.6e-06 -2.86e-05 -7.95139e-16 1.98785e-16 -0 9.43418 0 -4.58e-05 -3.18055e-15 -5.96354e-16 -0 9.71733 6.87e-05 0.0001106 -2.38542e-15 1.98785e-16 -0 8.26175 -2.29e-05 -4.77e-05 1.65521e-32 5.96354e-16 -1.59028e-15 9.75994 2.86e-05 3.05e-05 -1.59028e-15 -7.95139e-16 -0 11.1529 -7.25e-05 -5.91e-05 -7.95139e-16 1.39149e-15 1.59028e-15 10.3039 -7.6e-06 -7.10543e-15 -7.95139e-16 1.78906e-15 3.18055e-15 -1.14e-05 1.53e-05 9.94222 -109.624 24.9365 -172.32 25.9795 1e-06 0 -42.6195 -0.193604 -1.19515 21.2087 1.9e-06 -1e-06 57.702 6.71946 -8.64325 10.4341 -1.9e-06 1e-06 -12.822 -2.67983 4.4429 5.66763 6.59832 0 88.0025 11.7056 -4.73002 8.62785 0 1.42109e-14 -180 -1.78906e-14 9.54166e-15 5.67414 -2.36194 -0.530567 -75.8081 4.38708 5.33411 -2.62874 -3.42539 -3.14618 29.7499 1.82752 90.2264 1.53e-05 -1.53e-05 -9.94222 -122.54 -11.5271 167.611 25.9795 0 1e-06 -42.0737 -0.386679 2.56845 21.2087 0 1.9e-06 56.2689 -11.9024 8.31337 10.4341 -1.9e-06 -1e-06 -19.4426 8.66631 -4.64788 5.66763 6.59831 -7.10543e-15 83.7622 2.38138 -1.5741 8.62785 3.55271e-15 0 5.60359e-33 -8.07563e-16 3.97569e-16 5.67412 -2.36198 0.530355 -75.808 -4.38692 -5.33418 -2.62878 -3.42545 3.14601 29.7498 -1.82753 -90.2266
